<svg xmlns="http://www.w3.org/2000/svg" width="180" height="149" viewBox="0 0 180 149">
  <g id="Grupo_914" data-name="Grupo 914" transform="translate(-101.48 -54.592)">
    <path id="Caminho_616" data-name="Caminho 616"
      d="M281.48,98.922V92.2a4.83,4.83,0,0,0-4.826-4.833H259.618a4.83,4.83,0,0,1-4.826-4.833V75.813a4.83,4.83,0,0,1,4.826-4.833h.538a4.83,4.83,0,0,0,4.826-4.833V59.425a4.83,4.83,0,0,0-4.826-4.833H133.993a4.83,4.83,0,0,0-4.826,4.833v6.722a4.83,4.83,0,0,0,4.826,4.833h0a4.83,4.83,0,0,1,4.826,4.833v6.722a4.83,4.83,0,0,1-4.826,4.833H115.33A4.83,4.83,0,0,0,110.5,92.2v6.722a4.83,4.83,0,0,0,4.826,4.833h7.323a4.83,4.83,0,0,1,4.826,4.833v6.722a4.83,4.83,0,0,1-4.826,4.833h-.018a4.83,4.83,0,0,0-4.826,4.833V131.7a4.83,4.83,0,0,0,4.826,4.833h1.06a4.83,4.83,0,0,1,4.826,4.833v6.722a4.83,4.83,0,0,1-4.826,4.833H106.306a4.83,4.83,0,0,0-4.826,4.833v6.722a4.83,4.83,0,0,0,4.826,4.833H262.747a4.83,4.83,0,0,0,4.826-4.833v-6.722a4.83,4.83,0,0,0-4.826-4.833h-4.185a4.83,4.83,0,0,1-4.826-4.833v-6.722a4.83,4.83,0,0,1,4.826-4.833h9.867a4.83,4.83,0,0,0,4.826-4.833v-6.722a4.83,4.83,0,0,0-4.826-4.833h-2.993a4.83,4.83,0,0,1-4.826-4.833v-6.722a4.83,4.83,0,0,1,4.826-4.833h11.217a4.83,4.83,0,0,0,4.826-4.833Z"
      transform="translate(0 0)" fill="#dbe8ec" />
    <path id="Caminho_617" data-name="Caminho 617"
      d="M294.118,340.629q-.239-.866-.506-1.828l-1.738-1.255.52-.72.839.606c-.269-.969-.554-1.993-.852-3.061l-2.736-2.306.572-.679,1.74,1.467c-2.182-7.814-4.927-17.563-7.11-25.3A4.972,4.972,0,0,0,283.4,306.2l.369-.807a2.991,2.991,0,0,1,.573.357c-1.077-3.816-1.981-7.014-2.558-9.055a18.487,18.487,0,0,0-2.358-4.508l.352-.27.352-.271a16.917,16.917,0,0,1,1.467,2.4l.075-1.05.885.064-.178,2.478c.585,2.068,1.728,6.111,3.122,11.052.24-.86.493-1.707.511-1.768l.851.254c-.007.025-.7,2.362-.885,3.2l1.3,4.61a14.1,14.1,0,0,1,4.029.04l-.148.875a13.589,13.589,0,0,0-3.639-.054c1.712,6.077,3.558,12.648,5.133,18.286a14.414,14.414,0,0,1,3.459,1.794l-.5.733a16.955,16.955,0,0,0-2.672-1.5c1.4,5.017,2.224,8.074,2.828,10.327l-.857.23c-.224-.837-.193-.824-.554-2.135-.567.15-1.565.424-2.079.632l-.332-.823A22.637,22.637,0,0,1,294.118,340.629Z"
      transform="translate(-112.324 -149.588)" fill="#e06714" />
    <path id="Caminho_618" data-name="Caminho 618"
      d="M288.613,406.209c-.1-.756-.961-1.32-2.2-2.135a10.411,10.411,0,0,0-5.28-1.745,9.8,9.8,0,0,0-3.615.6c-1.4.439-3.588,1.125-4.235,2.934a1.576,1.576,0,0,0-.148.97c.418,1.758,4.813,3.122,8.307,2.987C285,409.677,288.839,407.929,288.613,406.209Z"
      transform="translate(-108.334 -219.18)" fill="#f9ae2b" />
    <path id="Caminho_619" data-name="Caminho 619"
      d="M289.123,410.405a4.876,4.876,0,0,0-1.723-.767,6.729,6.729,0,0,0-.906-.17,3.894,3.894,0,0,0-.917-.026c-.616.057-1.226.261-1.828.306a7.683,7.683,0,0,1-.9,0c-.3-.015-.606-.072-.91-.114s-.612-.1-.918-.12a7.811,7.811,0,0,0-.916-.021,10.713,10.713,0,0,0-1.823.122,11.283,11.283,0,0,0-1.771.466,9.015,9.015,0,0,0-1.685.81l.029.135a10.4,10.4,0,0,0,1.844.129,17.632,17.632,0,0,0,1.78-.08c.587-.052,1.164-.185,1.747-.284a15.1,15.1,0,0,0,1.75-.4,5.179,5.179,0,0,1,1.778-.2,13.057,13.057,0,0,1,1.764.4,8.777,8.777,0,0,0,1.756.113,10.7,10.7,0,0,0,1.818-.166Z"
      transform="translate(-109.412 -223.645)" fill="#e06714" />
    <path id="Caminho_620" data-name="Caminho 620"
      d="M294.159,301.776c-.888-.291-1.292-1.321-1.875-2.809a9.368,9.368,0,0,1-.387-5.894,10.056,10.056,0,0,1,1.917-3.59c1-1.34,2.552-3.431,4.969-3.651a2.316,2.316,0,0,1,1.23.088c2,.868,2.218,5.753.9,9.332C299.572,298.906,296.179,302.438,294.159,301.776Z"
      transform="translate(-119.987 -145.713)" fill="#f9ae2b" />
    <path id="Caminho_621" data-name="Caminho 621"
      d="M297.884,302.248a15.49,15.49,0,0,0,.684-1.857c.089-.308.182-.615.257-.925a6.111,6.111,0,0,0,.182-.943,14.331,14.331,0,0,1,.2-1.958,5.925,5.925,0,0,1,.792-1.784c.364-.554.694-1.114.994-1.685s.636-1.123.894-1.713.518-1.181.724-1.805a12.1,12.1,0,0,0,.557-1.929l-.118-.071a10.66,10.66,0,0,0-1.4,1.475,13.431,13.431,0,0,0-1.088,1.676,12.3,12.3,0,0,0-.767,1.842c-.107.316-.229.625-.3.953s-.139.659-.2.988-.115.662-.2.979-.189.63-.307.938c-.244.612-.637,1.186-.891,1.811a4.609,4.609,0,0,0-.266.967,7.6,7.6,0,0,0-.116,1,5.292,5.292,0,0,0,.237,2.038Z"
      transform="translate(-123.699 -146.838)" fill="#e06714" />
    <path id="Caminho_622" data-name="Caminho 622"
      d="M321.954,404.106c.519-.778,1.62-.89,3.21-1.052a9.368,9.368,0,0,1,5.781,1.21,10.057,10.057,0,0,1,2.943,2.811c1.023,1.32,2.619,3.38,2.182,5.767a2.315,2.315,0,0,1-.415,1.161c-1.375,1.7-6.137.591-9.231-1.637C323.264,410.091,320.774,405.874,321.954,404.106Z"
      transform="translate(-138.974 -219.6)" fill="#ee781d" />
    <path id="Caminho_623" data-name="Caminho 623"
      d="M324.144,406.273a15.486,15.486,0,0,0,1.605,1.158c.273.169.543.341.822.5a6.117,6.117,0,0,0,.859.428,14.342,14.342,0,0,1,1.832.718,5.93,5.93,0,0,1,1.505,1.242c.436.5.886.967,1.356,1.41s.911.915,1.41,1.321,1,.816,1.545,1.182a12.1,12.1,0,0,0,1.708,1.055l.1-.095a10.67,10.67,0,0,0-1.046-1.74,13.43,13.43,0,0,0-1.322-1.5,12.323,12.323,0,0,0-1.568-1.234c-.276-.187-.54-.388-.836-.549s-.6-.311-.9-.46-.607-.288-.889-.459-.556-.352-.821-.548c-.523-.4-.971-.932-1.505-1.345a4.608,4.608,0,0,0-.86-.516,7.6,7.6,0,0,0-.933-.381,5.291,5.291,0,0,0-2.027-.32Z"
      transform="translate(-140.539 -221.577)" fill="#e06714" />
    <path id="Caminho_624" data-name="Caminho 624"
      d="M283.252,276.272c-.672-.1-1.084-.793-1.679-1.791a6.809,6.809,0,0,1-.98-4.18,7.31,7.31,0,0,1,.947-2.8c.555-1.079,1.421-2.764,3.127-3.21a1.683,1.683,0,0,1,.892-.084c1.54.384,2.276,3.86,1.76,6.583C286.792,273.569,284.78,276.505,283.252,276.272Z"
      transform="translate(-113.019 -132.086)" fill="#ee781d" />
    <path id="Caminho_625" data-name="Caminho 625"
      d="M286.815,276.633c.1-.484.152-.949.21-1.415a11.164,11.164,0,0,0,.088-1.4,11.464,11.464,0,0,1-.046-1.425,3.721,3.721,0,0,1,.121-.7,5.217,5.217,0,0,1,.216-.68c.177-.445.335-.89.479-1.338s.31-.888.427-1.342.241-.908.327-1.377a10.174,10.174,0,0,0,.228-1.429l-.077-.03a8.87,8.87,0,0,0-.766,1.244c-.106.217-.2.438-.3.66a6.528,6.528,0,0,0-.258.675,10.383,10.383,0,0,0-.34,1.405c-.042.238-.093.473-.116.714s-.032.485-.049.726-.017.485-.048.722-.064.473-.108.709c-.1.468-.282.929-.378,1.407a5.343,5.343,0,0,0-.044,1.451,4.33,4.33,0,0,0,.353,1.432Z"
      transform="translate(-116.659 -132.917)" fill="#e06714" />
    <path id="Caminho_626" data-name="Caminho 626"
      d="M293.64,331.568c.049-.588.807-1.226,1.9-2.148a13.811,13.811,0,0,1,4.745-2.642,11.015,11.015,0,0,1,3.349-.477c1.31-.03,3.355-.078,4.05,1.1a.873.873,0,0,1,.191.683c-.284,1.413-4.239,3.547-7.451,4.336C297.145,333.226,293.529,332.9,293.64,331.568Z"
      transform="translate(-121.288 -171.214)" fill="#ee781d" />
    <path id="Caminho_627" data-name="Caminho 627"
      d="M295.039,333.823a7.758,7.758,0,0,0,.864-.123c.283-.048.555-.116.828-.183a9.659,9.659,0,0,0,1.59-.526,14.946,14.946,0,0,1,1.53-.756,5.935,5.935,0,0,1,1.664-.307c.285-.017.572-.021.853-.049s.56-.062.838-.1l.834-.109c.279-.029.554-.077.829-.131.546-.123,1.095-.236,1.637-.407a11.153,11.153,0,0,0,1.632-.579l-.011-.11a10.79,10.79,0,0,0-3.454-.067,12.1,12.1,0,0,0-1.674.38c-.276.077-.552.15-.822.254s-.535.219-.8.327a7.932,7.932,0,0,1-1.619.552,8.618,8.618,0,0,1-.855.116,8.513,8.513,0,0,0-.864.107,4.268,4.268,0,0,0-.824.246,7.521,7.521,0,0,0-.787.352,6.193,6.193,0,0,0-.749.444,4.1,4.1,0,0,0-.686.566Z"
      transform="translate(-122.139 -173.716)" fill="#e06714" />
    <path id="Caminho_628" data-name="Caminho 628"
      d="M308.061,344.137c.109-.6.948-1.172,2.16-2.005a14.19,14.19,0,0,1,5.117-2.224,11.318,11.318,0,0,1,3.472-.151c1.342.1,3.438.258,4.03,1.534a.9.9,0,0,1,.126.717c-.432,1.416-4.691,3.2-8.054,3.684C311.478,346.185,307.813,345.491,308.061,344.137Z"
      transform="translate(-130.387 -179.656)" fill="#f9ae2b" />
    <path id="Caminho_629" data-name="Caminho 629"
      d="M309.6,347.047c.6-.047,1.165-.144,1.735-.243a15.412,15.412,0,0,0,1.683-.388c.55-.175,1.092-.422,1.659-.543a8.144,8.144,0,0,1,1.729-.181c.292,0,.584.007.873,0l.867-.036.864-.043c.289-.007.576-.029.863-.054.573-.066,1.148-.113,1.722-.209a15.577,15.577,0,0,0,1.731-.323v-.083a14.011,14.011,0,0,0-3.513-.268,15.28,15.28,0,0,0-1.746.2,13.285,13.285,0,0,0-1.722.369,12.073,12.073,0,0,1-1.714.367c-.578.073-1.176.059-1.761.132a5.643,5.643,0,0,0-.862.176q-.426.111-.841.264a7.02,7.02,0,0,0-1.594.788Z"
      transform="translate(-131.341 -182.776)" fill="#e06714" />
    <path id="Caminho_630" data-name="Caminho 630"
      d="M267.992,314.9c.477-.722.178-1.7-.255-3.116a8.67,8.67,0,0,0-3.107-4.5,9.306,9.306,0,0,0-3.454-1.5c-1.493-.4-3.823-1.021-5.7.208a2.143,2.143,0,0,0-.842.771c-.954,1.782,1.7,5.448,4.709,7.287C262.416,315.926,266.907,316.537,267.992,314.9Z"
      transform="translate(-96.543 -157.975)" fill="#f9ae2b" />
    <path id="Caminho_631" data-name="Caminho 631"
      d="M269.306,316.871a4.709,4.709,0,0,0-.977-1.641,6.712,6.712,0,0,0-.658-.665,4,4,0,0,0-.752-.548c-.548-.3-1.174-.479-1.7-.781a8.192,8.192,0,0,1-.762-.5c-.246-.181-.468-.4-.705-.6s-.464-.421-.709-.612a8.8,8.8,0,0,0-.765-.523,10.825,10.825,0,0,0-1.614-.9,11.715,11.715,0,0,0-1.76-.578,9.286,9.286,0,0,0-1.874-.236l-.049.129a10.486,10.486,0,0,0,1.5,1.111,17.547,17.547,0,0,0,1.555.906c.524.281,1.088.482,1.634.722a16.706,16.706,0,0,0,1.7.632,5.146,5.146,0,0,1,1.605.828,12.682,12.682,0,0,1,1.253,1.326,5.129,5.129,0,0,0,.671.581c.233.181.478.348.721.517a12.551,12.551,0,0,0,1.587.927Z"
      transform="translate(-98.144 -160.497)" fill="#e06714" />
    <path id="Caminho_632" data-name="Caminho 632"
      d="M282.329,385.033c.417-.847-.042-1.865-.7-3.336a9.456,9.456,0,0,0-3.981-4.439,10.152,10.152,0,0,0-3.944-1.149c-1.67-.226-4.277-.579-6.141,1.011a2.338,2.338,0,0,0-.8.95c-.787,2.059,2.587,5.661,6.1,7.237C276.437,386.915,281.381,386.958,282.329,385.033Z"
      transform="translate(-104.25 -202.57)" fill="#ee781d" />
    <path id="Caminho_633" data-name="Caminho 633"
      d="M283.536,387.905a5.366,5.366,0,0,0-1.307-1.605,7.718,7.718,0,0,0-.8-.622,4.682,4.682,0,0,0-.886-.491c-.63-.258-1.321-.382-1.935-.638q-.458-.2-.894-.44c-.292-.16-.565-.364-.851-.543s-.564-.38-.856-.55-.6-.306-.9-.452a12.5,12.5,0,0,0-1.871-.745,13.645,13.645,0,0,0-1.977-.4,10.838,10.838,0,0,0-2.048-.038l-.032.134a12.308,12.308,0,0,0,1.787.954c.6.291,1.207.52,1.815.75s1.244.375,1.867.565,1.261.344,1.917.474a6.026,6.026,0,0,1,1.846.688,14.537,14.537,0,0,1,1.556,1.235,6.249,6.249,0,0,0,.809.534c.277.164.564.314.849.468a15.916,15.916,0,0,0,1.821.82Z"
      transform="translate(-105.846 -205.992)" fill="#e06714" />
    <path id="Caminho_634" data-name="Caminho 634"
      d="M292.792,365.17c.732-.591.772-1.86.83-3.692a12.838,12.838,0,0,0-1.557-6.679,12.09,12.09,0,0,0-2.951-3.42c-1.363-1.192-3.49-3.053-5.81-2.571a1.943,1.943,0,0,0-1.115.467c-1.581,1.569-.192,7.072,2.2,10.661C286.822,363.6,291.128,366.514,292.792,365.17Z"
      transform="translate(-113.63 -185.387)" fill="#f9ae2b" />
    <path id="Caminho_635" data-name="Caminho 635"
      d="M295.029,366.008a6.738,6.738,0,0,0-.4-2.259,9.479,9.479,0,0,0-.417-1.051,5.673,5.673,0,0,0-.553-.982c-.437-.618-1-1.155-1.423-1.763-.211-.306-.4-.625-.584-.948s-.33-.672-.492-1.011-.317-.686-.5-1.018a10.968,10.968,0,0,0-.584-.961,15.225,15.225,0,0,0-1.312-1.823,10.517,10.517,0,0,0-.769-.82q-.4-.4-.823-.769a13.118,13.118,0,0,0-1.852-1.325l-.1.095a15.461,15.461,0,0,0,1.133,1.95c.392.629.835,1.21,1.267,1.8s.939,1.114,1.41,1.673.967,1.1,1.5,1.624a7.6,7.6,0,0,1,1.322,1.767,18.055,18.055,0,0,1,.789,2.076,14.633,14.633,0,0,0,1.005,1.933,18.251,18.251,0,0,0,1.245,1.854Z"
      transform="translate(-115.968 -186.986)" fill="#e06714" />
    <path id="Caminho_636" data-name="Caminho 636"
      d="M295.538,423.94c-.357-.559-1.243-.685-2.523-.869a9.051,9.051,0,0,0-4.8.573,8.525,8.525,0,0,0-2.626,1.8c-.941.862-2.41,2.208-2.253,3.872a1.37,1.37,0,0,0,.241.818c.977,1.23,4.941.684,7.642-.711C293.976,428,296.351,425.211,295.538,423.94Z"
      transform="translate(-114.774 -232.16)" fill="#ee781d" />
    <path id="Caminho_637" data-name="Caminho 637"
      d="M296,425.508a3.348,3.348,0,0,0-.828-.042,5.051,5.051,0,0,0-.8.1,6.172,6.172,0,0,0-.773.2,3.615,3.615,0,0,0-.732.315c-.465.267-.877.636-1.334.891a7.519,7.519,0,0,1-.711.335c-.242.1-.5.172-.754.254s-.512.158-.761.254a7.736,7.736,0,0,0-.725.327,10.118,10.118,0,0,0-1.386.772,9.077,9.077,0,0,0-2.275,2.24l.067.088a9.473,9.473,0,0,0,1.48-.607c.478-.215.921-.476,1.367-.73s.85-.575,1.276-.864a15.227,15.227,0,0,0,1.24-.947,4.828,4.828,0,0,1,1.333-.8,11.93,11.93,0,0,1,1.528-.36,8.578,8.578,0,0,0,1.428-.557c.232-.113.464-.223.692-.354a7.638,7.638,0,0,0,.689-.416Z"
      transform="translate(-115.776 -233.726)" fill="#e06714" />
    <path id="Caminho_638" data-name="Caminho 638"
      d="M264.62,327.865c-.343-.82-1.414-1.155-2.961-1.638a9.825,9.825,0,0,0-9.585,1.836c-1.314.991-3.364,2.537-3.463,4.811a2.016,2.016,0,0,0,.153,1.149c.989,1.841,5.978,1.835,9.557.45C261.976,333.06,265.4,329.73,264.62,327.865Z"
      transform="translate(-92.856 -170.848)" fill="#ee781d" />
    <path id="Caminho_639" data-name="Caminho 639"
      d="M265.115,330.956a5.482,5.482,0,0,0-2.053-.17,7.758,7.758,0,0,0-1,.143,4.6,4.6,0,0,0-.965.29c-.622.268-1.192.673-1.8.93-.307.125-.62.23-.938.325s-.653.147-.981.22-.664.132-.989.219a9.528,9.528,0,0,0-.953.318,12.47,12.47,0,0,0-1.842.793,8.784,8.784,0,0,0-.856.524q-.418.28-.818.586a10.7,10.7,0,0,0-1.472,1.414l.072.118a12.321,12.321,0,0,0,1.934-.581c.625-.214,1.217-.484,1.809-.748s1.142-.612,1.714-.92a19.632,19.632,0,0,0,1.683-1.023,6.057,6.057,0,0,1,1.782-.825,14.772,14.772,0,0,1,1.966-.242,6.3,6.3,0,0,0,.945-.205c.31-.085.618-.184.925-.283a14.5,14.5,0,0,0,1.849-.746Z"
      transform="translate(-94.025 -174.026)" fill="#e06714" />
    <path id="Caminho_640" data-name="Caminho 640"
      d="M258.04,268.02c.821-.674.825-1.931.831-3.747a10.645,10.645,0,0,0-2.014-6.4,11.428,11.428,0,0,0-3.507-3.014c-1.607-1.009-4.114-2.585-6.765-1.823a2.631,2.631,0,0,0-1.267.6c-1.765,1.744.016,7.006,2.881,10.256C251.126,267.206,256.173,269.551,258.04,268.02Z"
      transform="translate(-90.347 -124.942)" fill="#f9ae2b" />
    <path id="Caminho_641" data-name="Caminho 641"
      d="M260.5,269.133a6.413,6.413,0,0,0-.642-2.222,9.319,9.319,0,0,0-.542-1,5.791,5.791,0,0,0-.674-.916c-.516-.563-1.143-1.028-1.649-1.578-.249-.28-.486-.567-.712-.866s-.417-.628-.632-.94-.413-.64-.637-.946-.477-.585-.722-.873a15.189,15.189,0,0,0-1.575-1.624,10.656,10.656,0,0,0-.888-.7q-.457-.335-.934-.643a13.436,13.436,0,0,0-2.042-1.039l-.085.109a15.4,15.4,0,0,0,1.426,1.765c.485.566,1.01,1.08,1.529,1.6s1.1.968,1.647,1.459,1.122.954,1.721,1.4a7.463,7.463,0,0,1,1.558,1.579,17.34,17.34,0,0,1,1.057,1.965,8.2,8.2,0,0,0,.586.923c.207.3.429.589.646.882.445.582.905,1.153,1.435,1.72Z"
      transform="translate(-92.963 -126.795)" fill="#e06714" />
    <path id="Caminho_642" data-name="Caminho 642"
      d="M320.635,383.692c-.72-.6-.718-1.7-.715-3.3a9.368,9.368,0,0,1,1.8-5.625,10.056,10.056,0,0,1,3.1-2.637c1.418-.881,3.632-2.256,5.961-1.574a2.316,2.316,0,0,1,1.112.533c1.545,1.543-.045,6.165-2.581,9.013C326.723,383.007,322.271,385.048,320.635,383.692Z"
      transform="translate(-137.872 -199.087)" fill="#f9ae2b" />
    <path id="Caminho_643" data-name="Caminho 643"
      d="M322.314,384.723a15.481,15.481,0,0,0,1.318-1.477c.2-.254.395-.505.579-.766a6.11,6.11,0,0,0,.515-.811,14.351,14.351,0,0,1,.9-1.748,5.929,5.929,0,0,1,1.391-1.369c.542-.382,1.054-.782,1.543-1.2s1-.812,1.46-1.266.915-.909,1.335-1.414a12.093,12.093,0,0,0,1.226-1.59l-.084-.109a10.661,10.661,0,0,0-1.839.861,13.435,13.435,0,0,0-1.627,1.16,12.315,12.315,0,0,0-1.389,1.432c-.215.255-.442.5-.632.775s-.371.562-.55.845-.349.574-.548.836-.407.517-.63.76c-.451.479-1.028.87-1.493,1.358a4.614,4.614,0,0,0-.6.8,7.6,7.6,0,0,0-.475.889,5.291,5.291,0,0,0-.527,1.983Z"
      transform="translate(-139.296 -200.721)" fill="#e06714" />
    <rect id="Retângulo_336" data-name="Retângulo 336" width="9.338" height="77.038"
      transform="translate(185.234 126.553)" fill="#ee781d" />
    <line id="Linha_79" data-name="Linha 79" x2="9.338" transform="translate(185.234 131.218)"
      fill="none" stroke="#e06714" stroke-miterlimit="10" stroke-width="4" />
    <line id="Linha_80" data-name="Linha 80" x2="9.338" transform="translate(185.234 135.864)"
      fill="none" stroke="#e06714" stroke-miterlimit="10" stroke-width="4" />
    <line id="Linha_81" data-name="Linha 81" x2="9.338" transform="translate(185.234 140.51)"
      fill="none" stroke="#e06714" stroke-miterlimit="10" stroke-width="4" />
    <line id="Linha_82" data-name="Linha 82" x2="9.338" transform="translate(185.234 145.156)"
      fill="none" stroke="#e06714" stroke-miterlimit="10" stroke-width="4" />
    <line id="Linha_83" data-name="Linha 83" x2="9.338" transform="translate(185.234 149.802)"
      fill="none" stroke="#e06714" stroke-miterlimit="10" stroke-width="4" />
    <line id="Linha_84" data-name="Linha 84" x2="9.338" transform="translate(185.234 154.448)"
      fill="none" stroke="#e06714" stroke-miterlimit="10" stroke-width="4" />
    <line id="Linha_85" data-name="Linha 85" x2="9.338" transform="translate(185.234 159.093)"
      fill="none" stroke="#e06714" stroke-miterlimit="10" stroke-width="4" />
    <line id="Linha_86" data-name="Linha 86" x2="9.338" transform="translate(185.234 163.739)"
      fill="none" stroke="#e06714" stroke-miterlimit="10" stroke-width="4" />
    <line id="Linha_87" data-name="Linha 87" x2="9.338" transform="translate(185.234 168.385)"
      fill="none" stroke="#e06714" stroke-miterlimit="10" stroke-width="4" />
    <line id="Linha_88" data-name="Linha 88" x2="9.338" transform="translate(185.234 173.031)"
      fill="none" stroke="#e06714" stroke-miterlimit="10" stroke-width="4" />
    <line id="Linha_89" data-name="Linha 89" x2="9.338" transform="translate(185.234 177.585)"
      fill="none" stroke="#e06714" stroke-miterlimit="10" stroke-width="4" />
    <line id="Linha_90" data-name="Linha 90" x2="9.338" transform="translate(185.234 182.248)"
      fill="none" stroke="#e06714" stroke-miterlimit="10" stroke-width="4" />
    <line id="Linha_91" data-name="Linha 91" x2="9.338" transform="translate(185.234 186.91)"
      fill="none" stroke="#e06714" stroke-miterlimit="10" stroke-width="4" />
    <line id="Linha_92" data-name="Linha 92" x2="9.338" transform="translate(185.234 191.572)"
      fill="none" stroke="#e06714" stroke-miterlimit="10" stroke-width="4" />
    <path id="Caminho_644" data-name="Caminho 644"
      d="M301.565,108.577H270.024a1.114,1.114,0,0,0-.964.557l-15.771,27.315a1.114,1.114,0,0,0,0,1.114l15.771,27.315a1.114,1.114,0,0,0,.964.557h31.541a1.114,1.114,0,0,0,.964-.557L318.3,137.563a1.114,1.114,0,0,0,0-1.114l-15.771-27.315a1.114,1.114,0,0,0-.964-.557Z"
      transform="translate(-95.887 -33.946)" fill="#f9ae2b" />
    <path id="Caminho_645" data-name="Caminho 645"
      d="M307.44,120.057H280.82a1.114,1.114,0,0,0-.964.557l-13.31,23.054a1.114,1.114,0,0,0,0,1.114l13.31,23.054a1.114,1.114,0,0,0,.964.557h26.62a1.114,1.114,0,0,0,.964-.557l13.31-23.054a1.114,1.114,0,0,0,0-1.114L308.4,120.614A1.114,1.114,0,0,0,307.44,120.057Z"
      transform="translate(-104.223 -41.291)" fill="none" stroke="#dbe8ec" stroke-miterlimit="10"
      stroke-width="2" />
    <text id="STOP" transform="translate(172.079 106.105)" fill="#d62828" font-size="14"
      font-family="SegoeUI, Segoe UI">
      <tspan x="0" y="0" letter-spacing="-0.01em">S</tspan>
      <tspan y="0" letter-spacing="-0.02em">T</tspan>
      <tspan y="0">OP</tspan>
    </text>
    <path id="Caminho_646" data-name="Caminho 646"
      d="M364.565,362.333q.182-.659.385-1.393l1.324-.956-.4-.548-.639.461c.2-.738.422-1.518.649-2.331l2.084-1.756-.436-.517-1.325,1.117c1.662-5.951,3.752-13.377,5.416-19.273a3.787,3.787,0,0,1,1.1-1.025l-.281-.615a2.277,2.277,0,0,0-.436.272c.82-2.906,1.509-5.342,1.948-6.9a14.083,14.083,0,0,1,1.8-3.433l-.268-.206-.268-.206a12.884,12.884,0,0,0-1.117,1.828l-.057-.8-.674.048.136,1.887c-.445,1.575-1.316,4.655-2.378,8.418-.183-.655-.375-1.3-.389-1.347l-.648.193c.006.019.536,1.8.674,2.44l-.99,3.511a10.741,10.741,0,0,0-3.069.03l.113.667a10.346,10.346,0,0,1,2.771-.041c-1.3,4.629-2.71,9.634-3.91,13.927a10.977,10.977,0,0,0-2.634,1.366l.381.559a12.9,12.9,0,0,1,2.035-1.144c-1.067,3.821-1.694,6.15-2.154,7.866l.653.175c.171-.637.147-.627.422-1.626.432.114,1.192.323,1.584.482l.253-.627A17.224,17.224,0,0,0,364.565,362.333Z"
      transform="translate(-165.094 -170.576)" fill="#e06714" />
    <path id="Caminho_647" data-name="Caminho 647"
      d="M370.271,412.284c.076-.576.732-1.006,1.679-1.626a7.93,7.93,0,0,1,4.022-1.329,7.468,7.468,0,0,1,2.753.454c1.067.335,2.733.857,3.226,2.235a1.2,1.2,0,0,1,.113.738c-.318,1.339-3.666,2.378-6.327,2.275C373.019,414.925,370.1,413.593,370.271,412.284Z"
      transform="translate(-169.645 -223.582)" fill="#f9ae2b" />
    <path id="Caminho_648" data-name="Caminho 648"
      d="M371.445,415.48a3.714,3.714,0,0,1,1.312-.585,5.134,5.134,0,0,1,.69-.13,2.966,2.966,0,0,1,.7-.02c.469.044.934.2,1.392.233a5.844,5.844,0,0,0,.689,0c.23-.012.461-.055.693-.087s.466-.073.7-.092a5.949,5.949,0,0,1,.7-.016,8.165,8.165,0,0,1,1.389.093,8.6,8.6,0,0,1,1.349.355,6.865,6.865,0,0,1,1.283.617l-.022.1a7.935,7.935,0,0,1-1.4.1,13.449,13.449,0,0,1-1.356-.061c-.447-.04-.887-.141-1.331-.216a11.513,11.513,0,0,1-1.333-.307,3.943,3.943,0,0,0-1.354-.15,9.935,9.935,0,0,0-1.344.3,6.686,6.686,0,0,1-1.338.086,8.146,8.146,0,0,1-1.385-.126Z"
      transform="translate(-170.387 -226.983)" fill="#e06714" />
    <path id="Caminho_649" data-name="Caminho 649"
      d="M372.965,332.741c.677-.222.984-1.007,1.428-2.14a7.135,7.135,0,0,0,.295-4.489,7.658,7.658,0,0,0-1.46-2.734c-.759-1.02-1.944-2.613-3.785-2.781a1.764,1.764,0,0,0-.937.067c-1.526.661-1.69,4.382-.688,7.107C368.842,330.555,371.427,333.245,372.965,332.741Z"
      transform="translate(-167.689 -167.621)" fill="#f9ae2b" />
    <path id="Caminho_650" data-name="Caminho 650"
      d="M375.9,333.1a11.8,11.8,0,0,1-.521-1.415c-.068-.235-.139-.468-.2-.7a4.663,4.663,0,0,1-.138-.718,10.908,10.908,0,0,0-.152-1.491,4.512,4.512,0,0,0-.6-1.358c-.277-.422-.528-.848-.757-1.284s-.485-.856-.681-1.3-.394-.9-.551-1.375a9.207,9.207,0,0,1-.425-1.469l.09-.054a8.116,8.116,0,0,1,1.063,1.124,10.225,10.225,0,0,1,.829,1.276,9.377,9.377,0,0,1,.584,1.4c.081.241.174.476.232.726s.106.5.154.753.087.5.155.746.144.48.234.715c.186.466.485.9.679,1.38a3.509,3.509,0,0,1,.2.737,5.791,5.791,0,0,1,.089.762,4.03,4.03,0,0,1-.18,1.553Z"
      transform="translate(-170.635 -168.477)" fill="#e06714" />
    <path id="Caminho_651" data-name="Caminho 651"
      d="M346.2,410.682c-.4-.592-1.234-.678-2.445-.8a7.136,7.136,0,0,0-4.4.922,7.659,7.659,0,0,0-2.241,2.141c-.779,1.005-1.995,2.574-1.662,4.392a1.764,1.764,0,0,0,.316.884c1.047,1.292,4.674.451,7.031-1.247C345.2,415.241,347.1,412.029,346.2,410.682Z"
      transform="translate(-147.632 -223.902)" fill="#ee781d" />
    <path id="Caminho_652" data-name="Caminho 652"
      d="M346.781,412.333a11.8,11.8,0,0,1-1.223.882c-.208.128-.414.259-.626.378a4.659,4.659,0,0,1-.655.326,10.927,10.927,0,0,0-1.4.547,4.516,4.516,0,0,0-1.146.946c-.332.38-.675.737-1.033,1.074s-.694.7-1.074,1.006-.761.621-1.176.9a9.21,9.21,0,0,1-1.3.8l-.076-.072a8.125,8.125,0,0,1,.8-1.325,10.239,10.239,0,0,1,1.007-1.141,9.389,9.389,0,0,1,1.194-.94c.21-.143.412-.3.637-.418s.455-.237.684-.35.462-.219.677-.35.424-.268.626-.417c.4-.3.74-.71,1.146-1.025a3.512,3.512,0,0,1,.655-.393,5.787,5.787,0,0,1,.711-.29,4.03,4.03,0,0,1,1.544-.243Z"
      transform="translate(-148.691 -225.407)" fill="#e06714" />
    <path id="Caminho_653" data-name="Caminho 653"
      d="M385.443,313.316c.512-.078.826-.6,1.279-1.364a5.186,5.186,0,0,0,.747-3.183,5.568,5.568,0,0,0-.721-2.134,4.192,4.192,0,0,0-2.382-2.445,1.282,1.282,0,0,0-.68-.064c-1.173.292-1.734,2.94-1.34,5.014C382.747,311.257,384.28,313.494,385.443,313.316Z"
      transform="translate(-177.167 -157.241)" fill="#ee781d" />
    <path id="Caminho_654" data-name="Caminho 654"
      d="M388.412,313.591c-.074-.369-.116-.723-.16-1.078a8.5,8.5,0,0,1-.067-1.064,8.736,8.736,0,0,0,.035-1.086,2.833,2.833,0,0,0-.092-.532,3.98,3.98,0,0,0-.164-.518c-.135-.339-.255-.678-.365-1.019s-.236-.676-.326-1.022-.184-.691-.249-1.049a7.754,7.754,0,0,1-.174-1.089l.059-.023a6.759,6.759,0,0,1,.584.948c.081.165.156.333.228.5a4.985,4.985,0,0,1,.2.514,7.917,7.917,0,0,1,.259,1.07c.032.181.071.36.088.544s.025.37.037.553.013.369.037.55.049.361.082.54c.074.357.215.708.288,1.072a4.067,4.067,0,0,1,.034,1.105,3.3,3.3,0,0,1-.269,1.09Z"
      transform="translate(-180.077 -157.873)" fill="#e06714" />
    <path id="Caminho_655" data-name="Caminho 655"
      d="M368.073,355.432c-.037-.447-.615-.934-1.448-1.636a10.52,10.52,0,0,0-3.614-2.012,8.39,8.39,0,0,0-2.551-.364c-1-.023-2.555-.059-3.085.839a.665.665,0,0,0-.145.52c.216,1.076,3.229,2.7,5.675,3.3C365.4,356.7,368.158,356.45,368.073,355.432Z"
      transform="translate(-161.41 -187.041)" fill="#ee781d" />
    <path id="Caminho_656" data-name="Caminho 656"
      d="M368.427,357.15a5.908,5.908,0,0,1-.658-.094c-.215-.037-.423-.088-.631-.139a7.357,7.357,0,0,1-1.211-.4,11.392,11.392,0,0,0-1.165-.576,4.519,4.519,0,0,0-1.267-.234c-.217-.013-.436-.016-.649-.038s-.426-.047-.638-.073l-.635-.083c-.212-.022-.422-.059-.631-.1-.416-.094-.834-.179-1.247-.31a8.491,8.491,0,0,1-1.243-.441l.009-.084a8.217,8.217,0,0,1,2.631-.051,9.212,9.212,0,0,1,1.275.289c.21.058.421.114.626.193s.408.166.611.249a6.044,6.044,0,0,0,1.233.42q.323.061.651.089a6.483,6.483,0,0,1,.658.082,3.253,3.253,0,0,1,.628.187,5.719,5.719,0,0,1,.6.268,4.719,4.719,0,0,1,.57.338,3.126,3.126,0,0,1,.523.431Z"
      transform="translate(-162.183 -188.946)" fill="#e06714" />
    <path id="Caminho_657" data-name="Caminho 657"
      d="M356.191,365.006c-.083-.454-.722-.893-1.645-1.527a10.807,10.807,0,0,0-3.9-1.694,8.619,8.619,0,0,0-2.645-.115c-1.022.077-2.618.2-3.07,1.168a.683.683,0,0,0-.1.546c.329,1.078,3.573,2.437,6.135,2.806C353.588,366.565,356.38,366.037,356.191,365.006Z"
      transform="translate(-153.583 -193.47)" fill="#f9ae2b" />
    <path id="Caminho_658" data-name="Caminho 658"
      d="M356.556,367.222c-.454-.036-.887-.11-1.321-.185a11.734,11.734,0,0,1-1.282-.3c-.419-.133-.831-.321-1.264-.414a6.2,6.2,0,0,0-1.317-.138c-.222,0-.445.005-.665,0l-.66-.027-.658-.033c-.22-.005-.439-.022-.657-.041-.437-.05-.874-.086-1.312-.159a11.866,11.866,0,0,1-1.318-.246v-.063a10.672,10.672,0,0,1,2.676-.2,11.642,11.642,0,0,1,1.33.153,10.12,10.12,0,0,1,1.312.281,9.191,9.191,0,0,0,1.305.279c.441.056.9.045,1.341.1a4.3,4.3,0,0,1,.657.134c.216.057.43.124.641.2a5.351,5.351,0,0,1,1.215.6Z"
      transform="translate(-154.391 -195.847)" fill="#e06714" />
    <path id="Caminho_659" data-name="Caminho 659"
      d="M388.186,342.734c-.363-.55-.135-1.3.194-2.373a6.6,6.6,0,0,1,2.366-3.425,7.089,7.089,0,0,1,2.631-1.144c1.137-.3,2.912-.778,4.343.159a1.632,1.632,0,0,1,.641.587c.727,1.357-1.293,4.149-3.587,5.55C392.433,343.518,389.012,343.983,388.186,342.734Z"
      transform="translate(-180.834 -176.958)" fill="#f9ae2b" />
    <path id="Caminho_660" data-name="Caminho 660"
      d="M389.082,344.238a3.587,3.587,0,0,1,.744-1.25,5.112,5.112,0,0,1,.5-.506,3.049,3.049,0,0,1,.573-.417c.418-.231.895-.365,1.3-.595a6.239,6.239,0,0,0,.581-.385c.187-.138.357-.307.537-.459s.353-.32.54-.466a6.711,6.711,0,0,1,.583-.4,8.241,8.241,0,0,1,1.23-.687,8.929,8.929,0,0,1,1.341-.44,7.071,7.071,0,0,1,1.427-.179l.037.1a7.989,7.989,0,0,1-1.142.846,13.362,13.362,0,0,1-1.184.69c-.4.214-.829.367-1.245.55a12.721,12.721,0,0,1-1.293.481,3.921,3.921,0,0,0-1.223.63,9.665,9.665,0,0,0-.954,1.01,3.909,3.909,0,0,1-.511.442c-.177.138-.364.265-.549.394a9.56,9.56,0,0,1-1.209.706Z"
      transform="translate(-181.513 -178.879)" fill="#e06714" />
    <path id="Caminho_661" data-name="Caminho 661"
      d="M374.622,396.154c-.318-.645.032-1.421.537-2.541a7.2,7.2,0,0,1,3.032-3.381,7.732,7.732,0,0,1,3-.875c1.272-.172,3.258-.441,4.678.77a1.78,1.78,0,0,1,.613.723c.6,1.568-1.97,4.312-4.645,5.512C379.11,397.588,375.344,397.621,374.622,396.154Z"
      transform="translate(-172.32 -210.93)" fill="#ee781d" />
    <path id="Caminho_662" data-name="Caminho 662"
      d="M375.621,398.342a4.087,4.087,0,0,1,1-1.223,5.888,5.888,0,0,1,.613-.474,3.57,3.57,0,0,1,.675-.374c.48-.2,1.006-.291,1.474-.486q.349-.151.681-.335c.222-.122.43-.277.648-.413s.43-.289.652-.419.456-.233.687-.344a9.523,9.523,0,0,1,1.425-.568,10.394,10.394,0,0,1,1.506-.3,8.252,8.252,0,0,1,1.56-.029l.024.1a9.373,9.373,0,0,1-1.361.727c-.454.221-.919.4-1.382.571s-.948.285-1.422.43-.96.262-1.46.361a4.59,4.59,0,0,0-1.406.524,11.081,11.081,0,0,0-1.185.94,4.759,4.759,0,0,1-.616.407c-.211.125-.43.239-.647.356a12.129,12.129,0,0,1-1.387.625Z"
      transform="translate(-173.023 -213.537)" fill="#e06714" />
    <path id="Caminho_663" data-name="Caminho 663"
      d="M371.467,381.026c-.557-.45-.588-1.417-.632-2.812a9.778,9.778,0,0,1,1.186-5.087,9.209,9.209,0,0,1,2.248-2.605c1.038-.908,2.658-2.325,4.425-1.958a1.481,1.481,0,0,1,.85.356c1.2,1.2.146,5.386-1.673,8.12C376.013,379.832,372.734,382.05,371.467,381.026Z"
      transform="translate(-169.99 -197.914)" fill="#f9ae2b" />
    <path id="Caminho_664" data-name="Caminho 664"
      d="M372.751,381.664a5.132,5.132,0,0,1,.3-1.721,7.205,7.205,0,0,1,.318-.8,4.318,4.318,0,0,1,.421-.748c.333-.47.759-.88,1.083-1.343.161-.233.305-.476.445-.722s.251-.512.375-.77.242-.523.377-.775a8.368,8.368,0,0,1,.445-.732,11.592,11.592,0,0,1,1-1.388,8,8,0,0,1,.585-.624q.3-.3.627-.586a9.994,9.994,0,0,1,1.41-1.009l.076.072a11.783,11.783,0,0,1-.863,1.485c-.3.479-.636.922-.965,1.369s-.716.849-1.074,1.274-.737.838-1.142,1.237a5.794,5.794,0,0,0-1.007,1.346,13.758,13.758,0,0,0-.6,1.581,11.145,11.145,0,0,1-.766,1.472,13.893,13.893,0,0,1-.948,1.412Z"
      transform="translate(-171.199 -199.134)" fill="#e06714" />
    <path id="Caminho_665" data-name="Caminho 665"
      d="M369.042,425.788c.272-.426.947-.522,1.921-.662a6.894,6.894,0,0,1,3.657.436,6.493,6.493,0,0,1,2,1.373c.717.657,1.836,1.682,1.716,2.949a1.044,1.044,0,0,1-.183.623c-.744.937-3.763.521-5.82-.541C370.233,428.882,368.424,426.756,369.042,425.788Z"
      transform="translate(-168.788 -233.468)" fill="#ee781d" />
    <path id="Caminho_666" data-name="Caminho 666"
      d="M370.342,426.983a2.548,2.548,0,0,1,.63-.032,3.851,3.851,0,0,1,.61.079,4.7,4.7,0,0,1,.589.156,2.756,2.756,0,0,1,.557.24c.354.2.668.485,1.016.679a5.73,5.73,0,0,0,.541.255c.184.077.381.131.574.194s.39.12.579.193a5.909,5.909,0,0,1,.552.249,7.711,7.711,0,0,1,1.056.588,6.914,6.914,0,0,1,1.733,1.706l-.051.067a7.218,7.218,0,0,1-1.127-.462c-.364-.164-.7-.363-1.041-.556s-.647-.438-.972-.658a11.606,11.606,0,0,1-.944-.721,3.677,3.677,0,0,0-1.015-.61,9.074,9.074,0,0,0-1.164-.274,6.531,6.531,0,0,1-1.088-.424c-.176-.086-.353-.17-.527-.27a5.8,5.8,0,0,1-.525-.317Z"
      transform="translate(-169.673 -234.66)" fill="#e06714" />
    <path id="Caminho_667" data-name="Caminho 667"
      d="M387.729,352.612c.261-.625,1.077-.88,2.255-1.248a7.483,7.483,0,0,1,7.3,1.4c1,.755,2.562,1.932,2.637,3.665a1.536,1.536,0,0,1-.117.875c-.753,1.4-4.553,1.4-7.279.343C389.743,356.569,387.135,354.033,387.729,352.612Z"
      transform="translate(-180.616 -186.763)" fill="#ee781d" />
    <path id="Caminho_668" data-name="Caminho 668"
      d="M389.245,354.966a4.176,4.176,0,0,1,1.564-.129,5.9,5.9,0,0,1,.763.109,3.5,3.5,0,0,1,.735.221c.474.2.908.513,1.373.708.234.1.472.176.715.247s.5.112.747.168.506.1.754.167a7.262,7.262,0,0,1,.726.242,9.5,9.5,0,0,1,1.4.6,6.7,6.7,0,0,1,.652.4q.318.213.623.447a8.15,8.15,0,0,1,1.121,1.077l-.055.09a9.389,9.389,0,0,1-1.473-.442c-.476-.163-.927-.368-1.378-.57s-.87-.466-1.305-.7a14.953,14.953,0,0,1-1.282-.779,4.614,4.614,0,0,0-1.357-.628,11.254,11.254,0,0,0-1.5-.184,4.8,4.8,0,0,1-.72-.156c-.236-.065-.47-.14-.7-.216a11.041,11.041,0,0,1-1.408-.568Z"
      transform="translate(-181.619 -189.183)" fill="#e06714" />
    <path id="Caminho_669" data-name="Caminho 669"
      d="M395.178,307.03c-.626-.513-.629-1.471-.633-2.854a8.108,8.108,0,0,1,1.534-4.876,8.7,8.7,0,0,1,2.671-2.3c1.224-.769,3.133-1.969,5.152-1.389a2,2,0,0,1,.965.456c1.344,1.328-.012,5.336-2.194,7.812C400.445,306.41,396.6,308.2,395.178,307.03Z"
      transform="translate(-184.966 -151.8)" fill="#f9ae2b" />
    <path id="Caminho_670" data-name="Caminho 670"
      d="M396.556,307.878a4.886,4.886,0,0,1,.489-1.693,7.1,7.1,0,0,1,.413-.765,4.411,4.411,0,0,1,.513-.7c.393-.429.871-.783,1.256-1.2.189-.213.37-.432.542-.66s.318-.479.482-.716.314-.487.485-.721.363-.446.55-.665a11.581,11.581,0,0,1,1.2-1.237,8.108,8.108,0,0,1,.677-.534q.348-.255.711-.49a10.234,10.234,0,0,1,1.556-.791l.064.083a11.728,11.728,0,0,1-1.086,1.344c-.369.431-.769.822-1.165,1.217s-.838.737-1.254,1.111-.854.726-1.311,1.07a5.685,5.685,0,0,0-1.187,1.2,13.214,13.214,0,0,0-.8,1.5,6.247,6.247,0,0,1-.447.7c-.158.228-.327.449-.492.672-.339.443-.69.878-1.093,1.31Z"
      transform="translate(-186.228 -153.212)" fill="#e06714" />
    <path id="Caminho_671" data-name="Caminho 671"
      d="M349.66,395.133c.548-.454.547-1.3.544-2.515a7.135,7.135,0,0,0-1.372-4.284,7.66,7.66,0,0,0-2.361-2.008c-1.08-.671-2.766-1.718-4.54-1.2a1.763,1.763,0,0,0-.847.406c-1.177,1.175.035,4.7,1.966,6.865C345.023,394.611,348.414,396.166,349.66,395.133Z"
      transform="translate(-150.928 -208.278)" fill="#f9ae2b" />
    <path id="Caminho_672" data-name="Caminho 672"
      d="M351.2,395.919a11.787,11.787,0,0,1-1-1.125c-.149-.193-.3-.385-.441-.584a4.653,4.653,0,0,1-.392-.617,10.918,10.918,0,0,0-.688-1.332,4.514,4.514,0,0,0-1.06-1.043c-.413-.291-.8-.6-1.175-.916s-.765-.618-1.112-.964-.7-.693-1.017-1.077a9.217,9.217,0,0,1-.934-1.211l.064-.083a8.116,8.116,0,0,1,1.4.656,10.225,10.225,0,0,1,1.239.883,9.382,9.382,0,0,1,1.058,1.091c.164.194.336.379.481.59s.282.428.419.644.266.437.418.637.31.394.48.579c.344.365.783.663,1.137,1.035a3.513,3.513,0,0,1,.459.611,5.79,5.79,0,0,1,.362.677,4.03,4.03,0,0,1,.4,1.511Z"
      transform="translate(-152.664 -209.522)" fill="#e06714" />
    <rect id="Retângulo_337" data-name="Retângulo 337" width="41.109" height="11.439" rx="3"
      transform="translate(169.351 192.153)" fill="#409cb5" />
    <circle id="Elipse_38" data-name="Elipse 38" cx="9.657" cy="9.657" r="9.657"
      transform="translate(197.113 67.465)" fill="#409cb5" />
    <rect id="Retângulo_338" data-name="Retângulo 338" width="1.006" height="8.932" rx="0.503"
      transform="translate(206.277 71.24)" fill="#f9ae2b" />
    <path id="Caminho_673" data-name="Caminho 673"
      d="M385.308,129.143a.944.944,0,0,0,0-1.886A.944.944,0,0,0,385.308,129.143Z"
      transform="translate(-178.528 -45.692)" fill="#f9ae2b" />
    <line id="Linha_93" data-name="Linha 93" x2="11.991" transform="translate(222.647 62.662)"
      fill="none" stroke="#3086a3" stroke-linecap="round" stroke-miterlimit="10" stroke-width="3" />
    <line id="Linha_94" data-name="Linha 94" x2="11.991" transform="translate(222.647 66.118)"
      fill="none" stroke="#3086a3" stroke-linecap="round" stroke-miterlimit="10" stroke-width="3" />
    <line id="Linha_95" data-name="Linha 95" x2="11.991" transform="translate(222.647 69.574)"
      fill="none" stroke="#3086a3" stroke-linecap="round" stroke-miterlimit="10" stroke-width="3" />
    <line id="Linha_96" data-name="Linha 96" x2="11.991" transform="translate(233.924 152.679)"
      fill="none" stroke="#3086a3" stroke-linecap="round" stroke-miterlimit="10" stroke-width="3" />
    <line id="Linha_97" data-name="Linha 97" x2="11.991" transform="translate(233.924 156.123)"
      fill="none" stroke="#3086a3" stroke-linecap="round" stroke-miterlimit="10" stroke-width="3" />
    <line id="Linha_98" data-name="Linha 98" x2="11.991" transform="translate(233.924 159.566)"
      fill="none" stroke="#3086a3" stroke-linecap="round" stroke-miterlimit="10" stroke-width="3" />
    <line id="Linha_99" data-name="Linha 99" x2="11.991" transform="translate(122.219 107.979)"
      fill="none" stroke="#3086a3" stroke-linecap="round" stroke-miterlimit="10" stroke-width="3" />
    <line id="Linha_100" data-name="Linha 100" x2="11.991" transform="translate(122.219 111.423)"
      fill="none" stroke="#3086a3" stroke-linecap="round" stroke-miterlimit="10" stroke-width="3" />
    <line id="Linha_101" data-name="Linha 101" x2="11.991" transform="translate(122.219 114.867)"
      fill="none" stroke="#3086a3" stroke-linecap="round" stroke-miterlimit="10" stroke-width="3" />
    <circle id="Elipse_39" data-name="Elipse 39" cx="5.125" cy="5.125" r="5.125"
      transform="translate(142.797 143.656)" fill="#b9d4db" />
    <circle id="Elipse_40" data-name="Elipse 40" cx="2.658" cy="2.658" r="2.658"
      transform="translate(137.477 157.717)" fill="#b9d4db" />
    <circle id="Elipse_41" data-name="Elipse 41" cx="3.797" cy="3.797" r="3.797"
      transform="translate(130.882 139.933)" fill="#b9d4db" />
    <circle id="Elipse_42" data-name="Elipse 42" cx="6.098" cy="6.098" r="6.098"
      transform="translate(240.805 106.445)" fill="#b9d4db" />
    <circle id="Elipse_43" data-name="Elipse 43" cx="3.176" cy="3.176" r="3.176"
      transform="translate(231.755 112.396)" fill="#b9d4db" />
    <circle id="Elipse_44" data-name="Elipse 44" cx="1.832" cy="1.832" r="1.832"
      transform="translate(229.395 103.233)" fill="#b9d4db" />
    <circle id="Elipse_45" data-name="Elipse 45" cx="4.392" cy="4.392" r="4.392"
      transform="translate(235.856 96)" fill="#b9d4db" />
    <circle id="Elipse_46" data-name="Elipse 46" cx="6.098" cy="6.098" r="6.098"
      transform="translate(143.958 71.125)" fill="#b9d4db" />
    <circle id="Elipse_47" data-name="Elipse 47" cx="3.176" cy="3.176" r="3.176"
      transform="translate(141.307 62.942)" fill="#b9d4db" />
    <circle id="Elipse_48" data-name="Elipse 48" cx="2.749" cy="2.749" r="2.749"
      transform="translate(161.18 55.111)" fill="#b9d4db" />
    <circle id="Elipse_49" data-name="Elipse 49" cx="1.832" cy="1.832" r="1.832"
      transform="translate(152.066 58.346)" fill="#b9d4db" />
    <circle id="Elipse_50" data-name="Elipse 50" cx="4.392" cy="4.392" r="4.392"
      transform="translate(156.033 63.629)" fill="#b9d4db" />
  </g>
</svg>